<svg xmlns="http://www.w3.org/2000/svg" viewBox="0 0 120 120">
  <!-- App background with rounded corners -->
  <rect x="0" y="0" width="120" height="120" rx="24" ry="24" fill="#4A6FFF" />
  
  <!-- Gradient background in Pokémon style -->
  <defs>
    <linearGradient id="bgGradient" x1="0%" y1="0%" x2="100%" y2="100%">
      <stop offset="0%" stop-color="#5B7FFF" />
      <stop offset="100%" stop-color="#3A5FEF" />
    </linearGradient>
  </defs>
  <rect x="0" y="0" width="120" height="120" rx="24" ry="24" fill="url(#bgGradient)" />
  
  <!-- Decorative elements inspired by Pokémon aesthetics -->
  <!-- Main circle emblem -->
  <circle cx="60" cy="60" r="40" fill="white" stroke="#333333" stroke-width="4" />
  
  <!-- Inner design elements -->
  <circle cx="60" cy="60" r="32" fill="#FFD200" stroke="#333333" stroke-width="3" />
  
  <!-- Abstract "H" shape for "Home" -->
  <path d="M45,40 L45,80 M75,40 L75,80 M45,60 L75,60" 
        stroke="#3A5FEF" stroke-width="10" stroke-linecap="round" stroke-linejoin="round" fill="none" />
  
  <!-- Decorative elements -->
  <circle cx="40" cy="35" r="5" fill="#FF5252" stroke="#333333" stroke-width="2" />
  <circle cx="80" cy="35" r="5" fill="#FF5252" stroke="#333333" stroke-width="2" />
  <circle cx="40" cy="85" r="5" fill="#FF5252" stroke="#333333" stroke-width="2" />
  <circle cx="80" cy="85" r="5" fill="#FF5252" stroke="#333333" stroke-width="2" />
  
  <!-- Subtle sparkle effects -->
  <circle cx="30" cy="30" r="2" fill="white" />
  <circle cx="90" cy="30" r="2" fill="white" />
  <circle cx="30" cy="90" r="2" fill="white" />
  <circle cx="90" cy="90" r="2" fill="white" />
  
  <!-- Corner accents -->
  <path d="M10,24 Q10,10 24,10" stroke="white" stroke-width="3" fill="none" />
  <path d="M110,24 Q110,10 96,10" stroke="white" stroke-width="3" fill="none" />
  <path d="M10,96 Q10,110 24,110" stroke="white" stroke-width="3" fill="none" />
  <path d="M110,96 Q110,110 96,110" stroke="white" stroke-width="3" fill="none" />
</svg>
