<?xml version="1.0" encoding="UTF-8"?>
<svg width="1024px" height="1024px" viewBox="0 0 1024 1024" version="1.1" xmlns="http://www.w3.org/2000/svg" xmlns:xlink="http://www.w3.org/1999/xlink">
    <title>Private Home AI App Icon</title>
    <defs>
        <linearGradient x1="0%" y1="0%" x2="100%" y2="100%" id="linearGradient">
            <stop stop-color="#4F8EF7" offset="0%"></stop>
            <stop stop-color="#2A5DB0" offset="100%"></stop>
        </linearGradient>
        <filter id="shadow" x="-10%" y="-10%" width="120%" height="120%">
            <feGaussianBlur in="SourceAlpha" stdDeviation="20"></feGaussianBlur>
            <feOffset dx="0" dy="10" result="offsetblur"></feOffset>
            <feComponentTransfer>
                <feFuncA type="linear" slope="0.3"></feFuncA>
            </feComponentTransfer>
            <feMerge>
                <feMergeNode></feMergeNode>
                <feMergeNode in="SourceGraphic"></feMergeNode>
            </feMerge>
        </filter>
    </defs>
    <g id="App-Icon" stroke="none" stroke-width="1" fill="none" fill-rule="evenodd">
        <!-- Background -->
        <rect id="Background" fill="url(#linearGradient)" x="0" y="0" width="1024" height="1024" rx="225"></rect>
        
        <!-- House Icon -->
        <g id="House" transform="translate(212, 212)" fill="#FFFFFF" filter="url(#shadow)">
            <path d="M300,0 L0,225 L0,600 L200,600 L200,400 L400,400 L400,600 L600,600 L600,225 L300,0 Z" id="House-Shape"></path>
        </g>
        
        <!-- AI Circuit Lines -->
        <g id="Circuit-Lines" stroke="#FFFFFF" stroke-width="12" stroke-linecap="round" stroke-linejoin="round" opacity="0.7">
            <path d="M212,512 L362,512" id="Line-1"></path>
            <path d="M662,512 L812,512" id="Line-2"></path>
            <path d="M512,212 L512,362" id="Line-3"></path>
            <path d="M512,662 L512,812" id="Line-4"></path>
            
            <circle id="Node-1" fill="#FFFFFF" cx="412" cy="412" r="15"></circle>
            <circle id="Node-2" fill="#FFFFFF" cx="612" cy="412" r="15"></circle>
            <circle id="Node-3" fill="#FFFFFF" cx="412" cy="612" r="15"></circle>
            <circle id="Node-4" fill="#FFFFFF" cx="612" cy="612" r="15"></circle>
        </g>
    </g>
</svg> 